# xmcd
#
# Track frame offsets:
#	150
#	19221
#	36449
#	56163
#	73953
#	91251
#	109048
#	132490
#	155589
#	173895
#	196888
#
# Disc length: 3011 seconds
#
# Revision: 0
# Processed by: cddbd v1.5.2PL0 Copyright (c) Steve Scherf et al.
# Submitted via: EasyCDDAExtractor 10.0.5.1
#
DISCID=9f0bc10b
DTITLE=Idin - Guess
DYEAR=2006
DGENRE=Pop
TTITLE0=Hads Bezan
TTITLE1=Yeckie Nist
TTITLE2=Yadam Toro Faramoosh
TTITLE3=Taghdir
TTITLE4=Koocheyeh Eshgh
TTITLE5=Nemeesheh
TTITLE6=Iran
TTITLE7=Querer
TTITLE8=Unsure (club)
TTITLE9=Why Am I So Sad (club)
TTITLE10=Hads Bezan (club) ~ji
EXTD=
EXTT0=
EXTT1=
EXTT2=
EXTT3=
EXTT4=
EXTT5=
EXTT6=
EXTT7=
EXTT8=
EXTT9=
EXTT10=
PLAYORDER=
